<svg width="20" height="21" viewBox="0 0 20 21" fill="none" xmlns="http://www.w3.org/2000/svg">
<path d="M8.33366 3V6.33333C8.33366 6.55435 8.24586 6.76631 8.08958 6.92259C7.9333 7.07887 7.72134 7.16667 7.50033 7.16667H4.16699M10.8337 5.5H13.3337M10.8337 8H13.3337M10.0003 10.5V15.5M13.3337 13H6.66699M15.8337 3.83333V17.1667C15.8337 17.3877 15.7459 17.5996 15.5896 17.7559C15.4333 17.9122 15.2213 18 15.0003 18H5.00033C4.77931 18 4.56735 17.9122 4.41107 17.7559C4.25479 17.5996 4.16699 17.3877 4.16699 17.1667V7.095C4.16704 6.874 4.25487 6.66208 4.41116 6.50583L7.67283 3.24417C7.82907 3.08788 8.041 3.00005 8.26199 3H15.0003C15.2213 3 15.4333 3.0878 15.5896 3.24408C15.7459 3.40036 15.8337 3.61232 15.8337 3.83333ZM6.66699 10.5V15.5H13.3337V10.5H6.66699Z" stroke="#747784" stroke-width="1.5" stroke-linecap="round" stroke-linejoin="round"/>
</svg>
