<svg width="20" height="21" viewBox="0 0 20 21" fill="none" xmlns="http://www.w3.org/2000/svg">
<path d="M6.99967 3H4.66634C4.31272 3 3.97358 3.14048 3.72353 3.39052C3.47348 3.64057 3.33301 3.97971 3.33301 4.33333V8.33333C3.33301 8.50843 3.3675 8.68181 3.4345 8.84358C3.50151 9.00535 3.59972 9.15233 3.72353 9.27614C3.84734 9.39995 3.99433 9.49817 4.1561 9.56517C4.31786 9.63218 4.49125 9.66667 4.66634 9.66667H6.99967C7.17477 9.66667 7.34815 9.63218 7.50992 9.56517C7.67169 9.49817 7.81867 9.39995 7.94248 9.27614C8.0663 9.15233 8.16451 9.00535 8.23151 8.84358C8.29852 8.68181 8.33301 8.50843 8.33301 8.33333V4.33333C8.33301 3.97971 8.19253 3.64057 7.94248 3.39052C7.69244 3.14048 7.3533 3 6.99967 3ZM6.99967 13H4.66634C4.31272 13 3.97358 13.1405 3.72353 13.3905C3.47348 13.6406 3.33301 13.9797 3.33301 14.3333V16.6667C3.33301 17.0203 3.47348 17.3594 3.72353 17.6095C3.97358 17.8595 4.31272 18 4.66634 18H6.99967C7.3533 18 7.69244 17.8595 7.94248 17.6095C8.19253 17.3594 8.33301 17.0203 8.33301 16.6667V14.3333C8.33301 13.9797 8.19253 13.6406 7.94248 13.3905C7.69244 13.1405 7.3533 13 6.99967 13ZM15.333 3H12.9997C12.6461 3 12.3069 3.14048 12.0569 3.39052C11.8068 3.64057 11.6663 3.97971 11.6663 4.33333V6.66667C11.6663 7.02029 11.8068 7.35943 12.0569 7.60948C12.3069 7.85952 12.6461 8 12.9997 8H15.333C15.6866 8 16.0258 7.85952 16.2758 7.60948C16.5259 7.35943 16.6663 7.02029 16.6663 6.66667V4.33333C16.6663 3.97971 16.5259 3.64057 16.2758 3.39052C16.0258 3.14048 15.6866 3 15.333 3ZM15.333 11.3333H12.9997C12.6461 11.3333 12.3069 11.4738 12.0569 11.7239C11.8068 11.9739 11.6663 12.313 11.6663 12.6667V16.6667C11.6663 17.0203 11.8068 17.3594 12.0569 17.6095C12.3069 17.8595 12.6461 18 12.9997 18H15.333C15.6866 18 16.0258 17.8595 16.2758 17.6095C16.5259 17.3594 16.6663 17.0203 16.6663 16.6667V12.6667C16.6663 12.313 16.5259 11.9739 16.2758 11.7239C16.0258 11.4738 15.6866 11.3333 15.333 11.3333Z" stroke="#747784" stroke-width="1.5" stroke-miterlimit="10" stroke-linejoin="round"/>
</svg>
