<svg width="16" height="16" viewBox="0 0 16 16" fill="none" xmlns="http://www.w3.org/2000/svg">
<path d="M6.66667 8.66658H5.33333M10.6667 8.66658H9.33333M6.66667 5.99992H5.33333M6.66667 11.3333H5.33333M10.6667 5.99992H9.33333M10.6667 11.3333H9.33333M14 9.25525V6.08525C14 5.32859 13.9993 4.94992 13.8153 4.63259C13.6313 4.31525 13.3027 4.12992 12.646 3.75925L9.296 1.86925C8.66267 1.51192 8.346 1.33325 8 1.33325C7.654 1.33325 7.33733 1.51192 6.704 1.86925L3.354 3.75992C2.69733 4.12992 2.36867 4.31525 2.18467 4.63325C2.00067 4.94992 2.00067 5.32859 2 6.08525V9.25525C2 11.8059 2 13.0819 2.78133 13.8739C3.562 14.6666 4.81933 14.6666 7.33333 14.6666H8.66667C11.1807 14.6666 12.438 14.6666 13.2187 13.8739C14 13.0819 14 11.8066 14 9.25525Z" stroke="#747784" stroke-width="0.57" stroke-linecap="round" stroke-linejoin="round"/>
</svg>
