<svg width="16" height="16" viewBox="0 0 16 16" fill="none" xmlns="http://www.w3.org/2000/svg">
<path d="M3 11.4713V12.6666C3 12.7551 3.03512 12.8398 3.09763 12.9024C3.16014 12.9649 3.24493 13 3.33333 13H4.52867C4.6169 13 4.70153 12.965 4.764 12.9026L10.4307 7.23598L8.764 5.56931L3.09733 11.236C3.03502 11.2985 3.00002 11.3831 3 11.4713ZM10.06 4.27331L11.7267 5.93998L12.5287 5.13798C12.6536 5.01296 12.7239 4.84342 12.7239 4.66665C12.7239 4.48987 12.6536 4.32033 12.5287 4.19531L11.8047 3.47131C11.6796 3.34633 11.5101 3.27612 11.3333 3.27612C11.1566 3.27612 10.987 3.34633 10.862 3.47131L10.06 4.27331Z" stroke="#747784"/>
</svg>
