<svg width="16" height="16" viewBox="0 0 16 16" fill="none" xmlns="http://www.w3.org/2000/svg">
<path d="M3.33398 3.33325H12.0007C12.5311 3.33325 13.0398 3.54397 13.4149 3.91904C13.7899 4.29411 14.0007 4.80282 14.0007 5.33325V11.3333C14.0007 11.8637 13.7899 12.3724 13.4149 12.7475C13.0398 13.1225 12.5311 13.3333 12.0007 13.3333H3.33398C2.80355 13.3333 2.29484 13.1225 1.91977 12.7475C1.5447 12.3724 1.33398 11.8637 1.33398 11.3333V5.33325C1.33398 4.80282 1.5447 4.29411 1.91977 3.91904C2.29484 3.54397 2.80355 3.33325 3.33398 3.33325ZM3.33398 3.99992C3.00065 3.99992 2.70732 4.11325 2.48065 4.31325L7.66732 7.66659L12.854 4.31325C12.6273 4.11325 12.334 3.99992 12.0007 3.99992H3.33398ZM7.66732 8.47325L2.08732 4.85325C2.03398 4.99992 2.00065 5.16659 2.00065 5.33325V11.3333C2.00065 11.6869 2.14113 12.026 2.39118 12.2761C2.64122 12.5261 2.98036 12.6666 3.33398 12.6666H12.0007C12.3543 12.6666 12.6934 12.5261 12.9435 12.2761C13.1935 12.026 13.334 11.6869 13.334 11.3333V5.33325C13.334 5.16659 13.3007 4.99992 13.2473 4.85325L7.66732 8.47325Z" fill="#747784"/>
</svg>
