<svg width="20" height="20" viewBox="0 0 20 20" fill="none" xmlns="http://www.w3.org/2000/svg">
<path d="M5.84507 13.3358H9.1784M5.84507 9.17085H12.5117M8.34507 18.3333H9.1784M6.2584 18.3333C5.2834 18.3125 4.61673 18.25 3.97007 18.0625C3.09507 17.8333 2.45757 17.0625 2.27007 15.98C2.03257 14.96 2.1159 12.4408 2.09507 9.44168C2.09673 7.11585 1.9909 4.88168 2.3659 3.61168C2.59507 3.19501 2.78257 1.67501 5.88674 1.69501C6.40757 1.67501 11.9284 1.63335 12.8034 1.71668C15.7201 1.77918 16.0117 3.27835 16.1784 4.69418C16.2842 5.73585 16.2617 7.40085 16.2617 9.17085M5.84507 1.67501C6.09507 3.02835 6.07423 3.90335 6.9909 4.11085C7.38673 4.17335 8.2909 4.17168 9.26174 4.17335C10.1284 4.17501 11.0117 4.18335 11.4076 4.09001C12.3867 3.86168 12.2826 2.65335 12.5326 1.67501M15.2326 11.9825C14.0867 13.1492 11.8801 15.2308 11.8801 15.3767C11.7026 15.6242 11.5467 16.1267 11.4434 16.835C11.3126 17.4908 11.1559 18.0625 11.3392 18.2292C11.5226 18.3958 12.2117 18.2558 12.9417 18.1042C13.5251 18.0417 14.0667 17.8333 14.3367 17.6258C14.7326 17.2758 17.4184 14.5642 17.7301 14.2108C17.9592 13.8983 17.9801 13.315 17.7801 12.9608C17.6684 12.7108 16.9601 12.0442 16.7309 11.8575C16.5005 11.7154 16.2306 11.6509 15.9608 11.6734C15.691 11.6958 15.4363 11.8042 15.2326 11.9825Z" stroke="#747784" stroke-width="0.75" stroke-linecap="round" stroke-linejoin="round"/>
</svg>
