<svg width="16" height="16" viewBox="0 0 16 16" fill="none" xmlns="http://www.w3.org/2000/svg">
<path d="M7.99984 12.6667H2.6665M13.3332 3.33342H11.3332M13.3332 12.6667H10.6665M8.6665 3.33342H2.6665M4.6665 8.00008H2.6665M13.3332 8.00008H7.33317" stroke="#57A2AD" stroke-linecap="round"/>
<path d="M10.6667 12.6667C10.6667 11.9303 10.0697 11.3333 9.33333 11.3333C8.59695 11.3333 8 11.9303 8 12.6667C8 13.403 8.59695 14 9.33333 14C10.0697 14 10.6667 13.403 10.6667 12.6667Z" stroke="#57A2AD" stroke-linecap="round"/>
<path d="M7.33317 7.99992C7.33317 7.26354 6.73622 6.66659 5.99984 6.66659C5.26346 6.66659 4.6665 7.26354 4.6665 7.99992C4.6665 8.7363 5.26346 9.33325 5.99984 9.33325C6.73622 9.33325 7.33317 8.7363 7.33317 7.99992Z" stroke="#57A2AD" stroke-linecap="round"/>
<path d="M11.3332 3.33341C11.3332 2.59703 10.7362 2.00008 9.99984 2.00008C9.26346 2.00008 8.6665 2.59703 8.6665 3.33341C8.6665 4.06979 9.26346 4.66675 9.99984 4.66675C10.7362 4.66675 11.3332 4.06979 11.3332 3.33341Z" stroke="#57A2AD" stroke-linecap="round"/>
</svg>
