<svg width="16" height="16" viewBox="0 0 16 16" fill="none" xmlns="http://www.w3.org/2000/svg">
<path d="M5.66683 7.66667V7H10.3335V7.66667H5.66683ZM5.66683 5V4.33333H10.3335V5H5.66683ZM4.00016 9.66667H9.00016C9.27127 9.66667 9.52016 9.72556 9.74683 9.84333C9.97305 9.96067 10.1677 10.1258 10.3308 10.3387L12.0002 12.5053V3.07733C12.0002 2.95733 11.9617 2.85889 11.8848 2.782C11.8079 2.70511 11.7097 2.66667 11.5902 2.66667H4.41016C4.29061 2.66667 4.19238 2.70511 4.1155 2.782C4.03861 2.85889 4.00016 2.95733 4.00016 3.07733V9.66667ZM4.41083 13.3333H11.7902L9.80683 10.7447C9.70594 10.6131 9.58683 10.5116 9.4495 10.44C9.31261 10.3689 9.16283 10.3333 9.00016 10.3333H4.00016V12.9233C4.00016 13.0429 4.03861 13.1411 4.1155 13.218C4.19238 13.2949 4.29083 13.3333 4.41083 13.3333ZM11.5902 14H4.41016C4.1035 14 3.8475 13.8973 3.64216 13.692C3.43683 13.4867 3.33394 13.2304 3.3335 12.9233V3.07667C3.3335 2.77 3.43638 2.514 3.64216 2.30867C3.84794 2.10333 4.10416 2.00044 4.41083 2H11.5902C11.8968 2 12.1531 2.10289 12.3588 2.30867C12.5646 2.51444 12.6673 2.77067 12.6668 3.07733V12.9233C12.6668 13.23 12.5642 13.4862 12.3588 13.692C12.1535 13.8978 11.8977 14.0004 11.5902 14Z" fill="#747784"/>
</svg>
