<svg width="20" height="20" viewBox="0 0 20 20" fill="none" xmlns="http://www.w3.org/2000/svg">
<path d="M17.5 16.6667C17.5 15.2151 16.1083 13.9809 14.1667 13.5226M12.5 16.6667C12.5 14.8251 10.2617 13.3334 7.5 13.3334C4.73833 13.3334 2.5 14.8251 2.5 16.6667M12.5 10.8334C13.3841 10.8334 14.2319 10.4822 14.857 9.8571C15.4821 9.23198 15.8333 8.38414 15.8333 7.50008C15.8333 6.61603 15.4821 5.76818 14.857 5.14306C14.2319 4.51794 13.3841 4.16675 12.5 4.16675M7.5 10.8334C6.61594 10.8334 5.7681 10.4822 5.14298 9.8571C4.51786 9.23198 4.16667 8.38414 4.16667 7.50008C4.16667 6.61603 4.51786 5.76818 5.14298 5.14306C5.7681 4.51794 6.61594 4.16675 7.5 4.16675C8.38405 4.16675 9.2319 4.51794 9.85702 5.14306C10.4821 5.76818 10.8333 6.61603 10.8333 7.50008C10.8333 8.38414 10.4821 9.23198 9.85702 9.8571C9.2319 10.4822 8.38405 10.8334 7.5 10.8334Z" stroke="#747784" stroke-width="1.5" stroke-linecap="round" stroke-linejoin="round"/>
</svg>
