<svg width="16" height="16" viewBox="0 0 16 16" fill="none" xmlns="http://www.w3.org/2000/svg">
<path d="M5.33239 10.6666H7.99905M5.33239 7.33325H10.6657M5.00039 2.33325C3.96305 2.36459 3.34505 2.47992 2.91705 2.90792C2.33105 3.49459 2.33105 4.43792 2.33105 6.32525V10.6626C2.33105 12.5506 2.33105 13.4939 2.91705 14.0806C3.50239 14.6666 4.44572 14.6666 6.33105 14.6666H9.66439C11.5504 14.6666 12.4931 14.6666 13.0784 14.0799C13.6651 13.4939 13.6651 12.5506 13.6651 10.6626V6.32525C13.6651 4.43859 13.6651 3.49459 13.0784 2.90792C12.6511 2.47992 12.0324 2.36459 10.9951 2.33325" stroke="#747784" stroke-width="0.75" stroke-linecap="round" stroke-linejoin="round"/>
<path d="M4.99805 2.49992C4.99805 1.85592 5.52071 1.33325 6.16471 1.33325H9.83138C10.1408 1.33325 10.4375 1.45617 10.6563 1.67496C10.8751 1.89375 10.998 2.1905 10.998 2.49992C10.998 2.80934 10.8751 3.10608 10.6563 3.32488C10.4375 3.54367 10.1408 3.66659 9.83138 3.66659H6.16471C5.85529 3.66659 5.55855 3.54367 5.33976 3.32488C5.12096 3.10608 4.99805 2.80934 4.99805 2.49992Z" stroke="#747784" stroke-width="0.75" stroke-linecap="round" stroke-linejoin="round"/>
</svg>
