<svg width="20" height="20" viewBox="0 0 20 20" fill="none" xmlns="http://www.w3.org/2000/svg">
<path d="M4.68016 16.6666C4.29627 16.6666 3.976 16.5383 3.71933 16.2816C3.46266 16.0249 3.33405 15.7044 3.3335 15.3199V4.67992C3.3335 4.29603 3.46211 3.97575 3.71933 3.71909C3.97655 3.46242 4.29683 3.33381 4.68016 3.33325H9.59933C9.71822 3.33325 9.81739 3.37297 9.89683 3.45242C9.97627 3.53186 10.016 3.63103 10.016 3.74992C10.016 3.86881 9.97627 3.96797 9.89683 4.04742C9.81739 4.12686 9.71822 4.16659 9.59933 4.16659H4.68016C4.55183 4.16659 4.43405 4.21992 4.32683 4.32659C4.21961 4.43325 4.16627 4.55103 4.16683 4.67992V15.3208C4.16683 15.4485 4.22016 15.566 4.32683 15.6733C4.4335 15.7805 4.551 15.8338 4.67933 15.8333H9.59933C9.71822 15.8333 9.81739 15.873 9.89683 15.9524C9.97627 16.0319 10.016 16.131 10.016 16.2499C10.016 16.3688 9.97627 16.468 9.89683 16.5474C9.81739 16.6269 9.71822 16.6666 9.59933 16.6666H4.68016ZM15.0502 10.4166H8.07683C7.9585 10.4166 7.85961 10.3769 7.78016 10.2974C7.70072 10.218 7.66072 10.1188 7.66016 9.99992C7.65961 9.88103 7.69933 9.78186 7.77933 9.70242C7.85933 9.62297 7.9585 9.58325 8.07683 9.58325H15.0502L13.4077 7.94075C13.3293 7.86297 13.2877 7.76908 13.2827 7.65909C13.2771 7.54853 13.3188 7.44742 13.4077 7.35575C13.496 7.26408 13.5941 7.21742 13.7018 7.21575C13.8102 7.21409 13.9102 7.25909 14.0018 7.35075L16.1802 9.52825C16.3146 9.66325 16.3818 9.82047 16.3818 9.99992C16.3818 10.1794 16.3143 10.3366 16.1793 10.4716L14.0018 12.6491C13.9207 12.7302 13.8243 12.7727 13.7127 12.7766C13.601 12.7805 13.4993 12.7363 13.4077 12.6441C13.3188 12.5524 13.2752 12.4533 13.2768 12.3466C13.2785 12.2399 13.3235 12.1427 13.4118 12.0549L15.0502 10.4166Z" fill="#747784"/>
</svg>
