<svg width="20" height="20" viewBox="0 0 20 20" fill="none" xmlns="http://www.w3.org/2000/svg">
<path d="M2.85712 3.75014C2.85712 3.13446 3.1017 2.54399 3.53705 2.10864C3.9724 1.67329 4.56286 1.42871 5.17855 1.42871H14.8214C15.4371 1.42871 16.0275 1.67329 16.4629 2.10864C16.8983 2.54399 17.1428 3.13446 17.1428 3.75014V12.4137C17.0566 12.4709 16.9755 12.5375 16.8993 12.6137L16.0714 13.4416V3.75014C16.0714 3.41862 15.9397 3.10068 15.7053 2.86626C15.4709 2.63184 15.1529 2.50014 14.8214 2.50014H5.17855C4.84702 2.50014 4.52908 2.63184 4.29466 2.86626C4.06024 3.10068 3.92855 3.41862 3.92855 3.75014V16.2501C3.92855 16.9401 4.48855 17.5001 5.17855 17.5001H10.9414L12.0128 18.5716H5.17855C4.56286 18.5716 3.9724 18.327 3.53705 17.8916C3.1017 17.4563 2.85712 16.8658 2.85712 16.2501V3.75014ZM7.49997 6.25014C7.49997 6.48694 7.40591 6.71404 7.23846 6.88148C7.07102 7.04893 6.84392 7.143 6.60712 7.143C6.37032 7.143 6.14321 7.04893 5.97577 6.88148C5.80833 6.71404 5.71426 6.48694 5.71426 6.25014C5.71426 6.01334 5.80833 5.78624 5.97577 5.61879C6.14321 5.45135 6.37032 5.35728 6.60712 5.35728C6.84392 5.35728 7.07102 5.45135 7.23846 5.61879C7.40591 5.78624 7.49997 6.01334 7.49997 6.25014ZM6.60712 10.893C6.84392 10.893 7.07102 10.7989 7.23846 10.6315C7.40591 10.464 7.49997 10.2369 7.49997 10.0001C7.49997 9.76334 7.40591 9.53624 7.23846 9.36879C7.07102 9.20135 6.84392 9.10728 6.60712 9.10728C6.37032 9.10728 6.14321 9.20135 5.97577 9.36879C5.80833 9.53624 5.71426 9.76334 5.71426 10.0001C5.71426 10.2369 5.80833 10.464 5.97577 10.6315C6.14321 10.7989 6.37032 10.893 6.60712 10.893ZM6.60712 14.643C6.84392 14.643 7.07102 14.5489 7.23846 14.3815C7.40591 14.214 7.49997 13.9869 7.49997 13.7501C7.49997 13.5133 7.40591 13.2862 7.23846 13.1188C7.07102 12.9513 6.84392 12.8573 6.60712 12.8573C6.37032 12.8573 6.14321 12.9513 5.97577 13.1188C5.80833 13.2862 5.71426 13.5133 5.71426 13.7501C5.71426 13.9869 5.80833 14.214 5.97577 14.3815C6.14321 14.5489 6.37032 14.643 6.60712 14.643ZM9.10712 5.71443C8.96504 5.71443 8.82878 5.77087 8.72831 5.87133C8.62784 5.9718 8.5714 6.10806 8.5714 6.25014C8.5714 6.39222 8.62784 6.52848 8.72831 6.62895C8.82878 6.72941 8.96504 6.78585 9.10712 6.78585H13.75C13.8921 6.78585 14.0283 6.72941 14.1288 6.62895C14.2292 6.52848 14.2857 6.39222 14.2857 6.25014C14.2857 6.10806 14.2292 5.9718 14.1288 5.87133C14.0283 5.77087 13.8921 5.71443 13.75 5.71443H9.10712ZM8.5714 10.0001C8.5714 9.85806 8.62784 9.7218 8.72831 9.62133C8.82878 9.52087 8.96504 9.46443 9.10712 9.46443H13.75C13.8921 9.46443 14.0283 9.52087 14.1288 9.62133C14.2292 9.7218 14.2857 9.85806 14.2857 10.0001C14.2857 10.1422 14.2292 10.2785 14.1288 10.3789C14.0283 10.4794 13.8921 10.5359 13.75 10.5359H9.10712C8.96504 10.5359 8.82878 10.4794 8.72831 10.3789C8.62784 10.2785 8.5714 10.1422 8.5714 10.0001ZM9.10712 13.2144C8.96504 13.2144 8.82878 13.2709 8.72831 13.3713C8.62784 13.4718 8.5714 13.6081 8.5714 13.7501C8.5714 13.8922 8.62784 14.0285 8.72831 14.1289C8.82878 14.2294 8.96504 14.2859 9.10712 14.2859H13.75C13.8921 14.2859 14.0283 14.2294 14.1288 14.1289C14.2292 14.0285 14.2857 13.8922 14.2857 13.7501C14.2857 13.6081 14.2292 13.4718 14.1288 13.3713C14.0283 13.2709 13.8921 13.2144 13.75 13.2144H9.10712ZM18.4143 14.1287L14.1285 18.4144C14.0281 18.5147 13.8919 18.5711 13.75 18.5711C13.608 18.5711 13.4718 18.5147 13.3714 18.4144L11.23 16.273C11.1353 16.1714 11.0838 16.0371 11.0863 15.8983C11.0887 15.7596 11.1449 15.6271 11.2431 15.529C11.3413 15.4308 11.4737 15.3746 11.6125 15.3722C11.7512 15.3697 11.8856 15.4212 11.9871 15.5159L13.75 17.278L17.6571 13.3709C17.7066 13.3197 17.7657 13.2789 17.8311 13.2509C17.8964 13.2228 17.9667 13.2081 18.0379 13.2075C18.109 13.2069 18.1795 13.2205 18.2454 13.2475C18.3112 13.2744 18.371 13.3143 18.4213 13.3646C18.4715 13.4149 18.5113 13.4747 18.5382 13.5406C18.5651 13.6064 18.5786 13.677 18.578 13.7481C18.5773 13.8192 18.5625 13.8895 18.5344 13.9549C18.5063 14.0202 18.4655 14.0793 18.4143 14.1287Z" fill="#747784"/>
</svg>
