<svg width="20" height="20" viewBox="0 0 20 20" fill="none" xmlns="http://www.w3.org/2000/svg">
<path d="M13.6039 13.0759C13.213 13.0759 12.8699 13.2137 12.6014 13.4787C12.3327 13.7441 12.1846 14.0978 12.1846 14.4753C12.1846 14.6478 12.3246 14.7878 12.4971 14.7878C12.6696 14.7878 12.8096 14.6478 12.8096 14.4753C12.8096 14.2662 12.8914 14.0706 13.0402 13.9237C13.1889 13.7772 13.3852 13.6944 13.5952 13.7009C14.0033 13.7066 14.3527 14.0559 14.3583 14.4641C14.3627 14.7881 14.1714 15.075 13.8711 15.195C13.5068 15.3406 13.2714 15.6769 13.2714 16.0728C13.2714 16.2453 13.4114 16.3747 13.5839 16.3747C13.7564 16.3747 13.8964 16.2241 13.8964 16.0516C13.8964 15.9322 13.9755 15.8266 14.103 15.7756C14.6374 15.5619 14.9911 15.0316 14.9833 14.4556C14.9727 13.7053 14.3539 13.0866 13.6036 13.0762L13.6039 13.0759Z" fill="#747784"/>
<path d="M13.584 16.6812C13.4115 16.6812 13.2715 16.8212 13.2715 16.9937V17.0921C13.2715 17.2646 13.4115 17.4046 13.584 17.4046C13.7565 17.4046 13.8965 17.2646 13.8965 17.0921V16.9937C13.8965 16.8212 13.7565 16.6812 13.584 16.6812Z" fill="#747784"/>
<path d="M15.0593 10.8844C15.2318 10.8844 15.3718 10.7444 15.3718 10.5719V2.81875C15.3718 2.295 14.9471 1.86875 14.4249 1.86875H11.8371C11.7718 1.52 11.4677 1.255 11.1021 1.255H9.81303C9.62646 0.87875 9.2324 0.625 8.79615 0.625C8.35209 0.625 7.96303 0.874375 7.77803 1.255H6.49021C6.12271 1.255 5.81709 1.52 5.75115 1.86875H3.15928C2.6374 1.86875 2.2124 2.295 2.2124 2.81875V16.3375C2.2124 16.8597 2.63709 17.2844 3.15928 17.2844H9.0999C9.2724 17.2844 9.4124 17.1444 9.4124 16.9719C9.4124 16.7994 9.2724 16.6594 9.0999 16.6594H3.15928C2.98178 16.6594 2.8374 16.515 2.8374 16.3375V2.81875C2.8374 2.63969 2.98178 2.49375 3.15928 2.49375H5.7374V2.99219C5.7374 3.03437 5.74303 3.07531 5.7499 3.11563H3.9999C3.8274 3.11563 3.6874 3.25563 3.6874 3.42813V15.375C3.6874 15.5475 3.8274 15.6875 3.9999 15.6875H8.7624C8.9349 15.6875 9.0749 15.5475 9.0749 15.375C9.0749 15.2025 8.9349 15.0625 8.7624 15.0625H4.3124V3.74063H6.48584C6.4874 3.74063 6.48897 3.74094 6.49053 3.74094C6.49147 3.74094 6.49209 3.74063 6.49271 3.74063H11.0999C11.0999 3.74063 11.1015 3.74094 11.1021 3.74094C11.1037 3.74094 11.1052 3.74063 11.1065 3.74063H13.2715V10.3438C13.2715 10.5162 13.4115 10.6562 13.584 10.6562C13.7565 10.6562 13.8965 10.5162 13.8965 10.3438V3.42813C13.8965 3.25563 13.7565 3.11563 13.584 3.11563H11.8383C11.8452 3.07531 11.8508 3.03437 11.8508 2.99219V2.49375H14.4246C14.6021 2.49375 14.7465 2.63969 14.7465 2.81875V10.5719C14.7465 10.7444 14.8868 10.8844 15.0593 10.8844ZM6.48803 3.11563C6.41959 3.11438 6.3624 3.05844 6.3624 2.99219V2.00813C6.3624 1.9375 6.4199 1.88 6.49053 1.88H7.99771C8.14365 1.88 8.27022 1.77906 8.3024 1.63687C8.35428 1.40906 8.5574 1.25 8.79646 1.25C9.03178 1.25 9.23959 1.41281 9.29053 1.63656C9.32271 1.77906 9.44928 1.88 9.59521 1.88H11.1024C11.1718 1.88 11.2262 1.93625 11.2262 2.00813V2.17531C11.2262 2.1775 11.2249 2.17938 11.2249 2.18125C11.2249 2.18313 11.2262 2.18531 11.2262 2.18719V2.99219C11.2262 3.05969 11.1718 3.11438 11.1046 3.11563H6.48834H6.48803Z" fill="#747784"/>
<path d="M11.8946 5.10962H5.68994C5.51744 5.10962 5.37744 5.24962 5.37744 5.42212C5.37744 5.59462 5.51744 5.73462 5.68994 5.73462H11.8946C12.0671 5.73462 12.2071 5.59462 12.2071 5.42212C12.2071 5.24962 12.0671 5.10962 11.8946 5.10962Z" fill="#747784"/>
<path d="M11.8946 6.96289H5.68994C5.51744 6.96289 5.37744 7.10289 5.37744 7.27539C5.37744 7.44789 5.51744 7.58789 5.68994 7.58789H11.8946C12.0671 7.58789 12.2071 7.44789 12.2071 7.27539C12.2071 7.10289 12.0671 6.96289 11.8946 6.96289Z" fill="#747784"/>
<path d="M12.2071 9.12842C12.2071 8.95592 12.0671 8.81592 11.8946 8.81592H5.68994C5.51744 8.81592 5.37744 8.95592 5.37744 9.12842C5.37744 9.30092 5.51744 9.44092 5.68994 9.44092H11.8946C12.0671 9.44092 12.2071 9.30092 12.2071 9.12842Z" fill="#747784"/>
<path d="M11.3162 10.9819C11.3162 10.8094 11.1762 10.6694 11.0037 10.6694H5.68994C5.51744 10.6694 5.37744 10.8094 5.37744 10.9819C5.37744 11.1544 5.51744 11.2944 5.68994 11.2944H11.004C11.1765 11.2944 11.3162 11.1544 11.3162 10.9819Z" fill="#747784"/>
<path d="M5.68994 12.5225C5.51744 12.5225 5.37744 12.6625 5.37744 12.835C5.37744 13.0075 5.51744 13.1475 5.68994 13.1475H9.31463C9.48713 13.1475 9.62713 13.0075 9.62713 12.835C9.62713 12.6625 9.48713 12.5225 9.31463 12.5225H5.68994Z" fill="#747784"/>
<path d="M10.6119 12.1998C8.97313 13.8385 8.97313 16.5054 10.6119 18.1441C11.4313 18.9635 12.5075 19.3732 13.5841 19.3732C14.6606 19.3732 15.7369 18.9635 16.5563 18.1441C18.195 16.5054 18.195 13.8385 16.5563 12.1998C14.9175 10.561 12.2509 10.561 10.6119 12.1998ZM16.1144 17.7023C14.7194 19.097 12.4491 19.0976 11.0538 17.7023C9.65875 16.307 9.65875 14.037 11.0538 12.6416C11.7513 11.9441 12.6678 11.5951 13.5841 11.5951C14.5003 11.5951 15.4169 11.9441 16.1144 12.6416C17.5094 14.037 17.5094 16.307 16.1144 17.7023Z" fill="#747784"/>
</svg>
