<svg width="20" height="20" viewBox="0 0 20 20" fill="none" xmlns="http://www.w3.org/2000/svg">
<g clip-path="url(#clip0_247_2388)">
<path d="M0.803711 1.74437V16.185C0.804456 16.4819 0.922926 16.7663 1.13313 16.9759C1.34333 17.1855 1.6281 17.3032 1.92496 17.3031H9.69652C10.0733 17.9348 10.6076 18.4578 11.2471 18.821C11.8866 19.1842 12.6095 19.3751 13.345 19.3751C14.0804 19.3751 14.8033 19.1842 15.4428 18.821C16.0824 18.4578 16.6167 17.9348 16.9934 17.3031H18.075C18.3718 17.3032 18.6566 17.1855 18.8668 16.9759C19.077 16.7663 19.1955 16.4819 19.1962 16.185V1.74437C19.1958 1.4473 19.0775 1.16254 18.8672 0.952652C18.657 0.742764 18.372 0.624917 18.075 0.625H6.2609C6.25871 0.625 6.25684 0.625 6.25496 0.625C6.25309 0.625 6.24996 0.625 6.24996 0.625H1.92496C1.62789 0.624917 1.34293 0.742764 1.13269 0.952652C0.922449 1.16254 0.804125 1.4473 0.803711 1.74437ZM1.92496 1.25H5.94246V3.42469H1.42871V1.74437C1.42883 1.67933 1.44177 1.61495 1.46677 1.5549C1.49178 1.49485 1.52837 1.44032 1.57445 1.39441C1.62053 1.3485 1.6752 1.31212 1.73534 1.28734C1.79548 1.26257 1.85992 1.24988 1.92496 1.25ZM13.3437 18.75C12.6248 18.7498 11.922 18.5364 11.3243 18.1369C10.7266 17.7373 10.2608 17.1695 9.98579 16.5052C9.71078 15.8409 9.63893 15.11 9.7793 14.4049C9.91968 13.6998 10.266 13.0521 10.7744 12.5438C11.2829 12.0355 11.9306 11.6894 12.6358 11.5492C13.3409 11.409 14.0718 11.481 14.736 11.7562C15.4003 12.0314 15.968 12.4973 16.3674 13.0951C16.7668 13.6929 16.98 14.3957 16.98 15.1147C16.9789 16.0787 16.5954 17.0028 15.9137 17.6844C15.232 18.3659 14.3077 18.7492 13.3437 18.75ZM18.075 16.6781H17.304C17.5609 16.0319 17.6556 15.3326 17.58 14.6413C17.5044 13.95 17.2607 13.2877 16.8702 12.7122C16.4797 12.1368 15.9542 11.6657 15.3397 11.3401C14.7252 11.0145 14.0404 10.8443 13.345 10.8443C12.6495 10.8443 11.9647 11.0145 11.3502 11.3401C10.7357 11.6657 10.2103 12.1368 9.81976 12.7122C9.42925 13.2877 9.18554 13.95 9.10992 14.6413C9.03429 15.3326 9.12904 16.0319 9.3859 16.6781H1.92496C1.79381 16.6784 1.66792 16.6266 1.57489 16.5342C1.48186 16.4417 1.42929 16.3161 1.42871 16.185V4.05094H18.5712V16.185C18.5706 16.3161 18.5181 16.4417 18.425 16.5342C18.332 16.6266 18.2061 16.6784 18.075 16.6781ZM18.5712 1.74437V3.42594H6.56746V1.25H18.075C18.14 1.24988 18.2044 1.26257 18.2646 1.28734C18.3247 1.31212 18.3794 1.3485 18.4255 1.39441C18.4716 1.44032 18.5081 1.49485 18.5332 1.5549C18.5582 1.61495 18.5711 1.67933 18.5712 1.74437Z" fill="#747784"/>
<path d="M2.40605 2.44689C2.46529 2.50499 2.54496 2.53754 2.62793 2.53754C2.7109 2.53754 2.79057 2.50499 2.8498 2.44689C2.9079 2.38766 2.94045 2.30799 2.94045 2.22502C2.94045 2.14205 2.9079 2.06238 2.8498 2.00314C2.80586 1.95978 2.75006 1.93041 2.68943 1.91873C2.62881 1.90705 2.56609 1.91359 2.50918 1.93752C2.47094 1.95262 2.43593 1.9749 2.40605 2.00314C2.349 2.06306 2.31664 2.14229 2.31543 2.22502C2.31592 2.26586 2.32442 2.3062 2.34043 2.34377C2.35477 2.38239 2.37714 2.41754 2.40605 2.44689Z" fill="#747784"/>
<path d="M3.5249 2.44687C3.55339 2.47592 3.58744 2.49892 3.62503 2.5145C3.66262 2.53007 3.70297 2.53789 3.74365 2.53749C3.7848 2.5379 3.82562 2.5301 3.86372 2.51454C3.90182 2.49898 3.93643 2.47597 3.96553 2.44687C3.99541 2.41768 4.01883 2.38255 4.03428 2.34374C4.04933 2.30599 4.05676 2.26563 4.05615 2.22499C4.05639 2.14197 4.02382 2.06223 3.96553 2.00312C3.93679 1.97493 3.90282 1.95264 3.86553 1.93749C3.78836 1.90625 3.70207 1.90625 3.6249 1.93749C3.58761 1.95264 3.55364 1.97493 3.5249 2.00312C3.46575 2.06191 3.43208 2.1416 3.43115 2.22499C3.43165 2.26583 3.44014 2.30617 3.45615 2.34374C3.47044 2.38315 3.49403 2.41852 3.5249 2.44687Z" fill="#747784"/>
<path d="M4.64046 2.44687C4.69957 2.50516 4.77932 2.53773 4.86234 2.53749C4.90302 2.53789 4.94337 2.53007 4.98096 2.5145C5.01855 2.49892 5.05261 2.47592 5.08109 2.44687C5.11197 2.41852 5.13555 2.38315 5.14984 2.34374C5.16585 2.30617 5.17435 2.26583 5.17484 2.22499C5.17391 2.1416 5.14024 2.06191 5.08109 2.00312C5.05235 1.97493 5.01838 1.95264 4.98109 1.93749C4.90392 1.90625 4.81763 1.90625 4.74046 1.93749C4.70317 1.95264 4.6692 1.97493 4.64046 2.00312C4.58217 2.06223 4.5496 2.14197 4.54984 2.22499C4.54923 2.26563 4.55666 2.30599 4.57171 2.34374C4.58716 2.38255 4.61058 2.41768 4.64046 2.44687Z" fill="#747784"/>
<path d="M8.36914 2.53784H16.7498C16.8326 2.53784 16.9121 2.50492 16.9707 2.44631C17.0293 2.38771 17.0623 2.30822 17.0623 2.22534C17.0623 2.14246 17.0293 2.06298 16.9707 2.00437C16.9121 1.94577 16.8326 1.91284 16.7498 1.91284H8.36914C8.28626 1.91284 8.20678 1.94577 8.14817 2.00437C8.08956 2.06298 8.05664 2.14246 8.05664 2.22534C8.05664 2.30822 8.08956 2.38771 8.14817 2.44631C8.20678 2.50492 8.28626 2.53784 8.36914 2.53784Z" fill="#747784"/>
<path d="M3.31006 6.99438H6.7885C6.87138 6.99438 6.95086 6.96146 7.00947 6.90286C7.06807 6.84425 7.101 6.76476 7.101 6.68188C7.101 6.599 7.06807 6.51952 7.00947 6.46091C6.95086 6.40231 6.87138 6.36938 6.7885 6.36938H3.31006C3.22718 6.36938 3.14769 6.40231 3.08909 6.46091C3.03048 6.51952 2.99756 6.599 2.99756 6.68188C2.99756 6.76476 3.03048 6.84425 3.08909 6.90286C3.14769 6.96146 3.22718 6.99438 3.31006 6.99438Z" fill="#747784"/>
<path d="M11.5908 7.93066H3.30957C3.22669 7.93066 3.1472 7.96359 3.0886 8.02219C3.02999 8.0808 2.99707 8.16028 2.99707 8.24316C2.99707 8.32604 3.02999 8.40553 3.0886 8.46413C3.1472 8.52274 3.22669 8.55566 3.30957 8.55566H11.5908C11.6737 8.55566 11.7532 8.52274 11.8118 8.46413C11.8704 8.40553 11.9033 8.32604 11.9033 8.24316C11.9033 8.16028 11.8704 8.0808 11.8118 8.02219C11.7532 7.96359 11.6737 7.93066 11.5908 7.93066Z" fill="#747784"/>
<path d="M9.39725 9.49219H3.31006C3.22718 9.49219 3.14769 9.52511 3.08909 9.58372C3.03048 9.64232 2.99756 9.72181 2.99756 9.80469C2.99756 9.88757 3.03048 9.96705 3.08909 10.0257C3.14769 10.0843 3.22718 10.1172 3.31006 10.1172H9.39725C9.48013 10.1172 9.55961 10.0843 9.61822 10.0257C9.67682 9.96705 9.70975 9.88757 9.70975 9.80469C9.70975 9.72181 9.67682 9.64232 9.61822 9.58372C9.55961 9.52511 9.48013 9.49219 9.39725 9.49219Z" fill="#747784"/>
<path d="M3.31006 11.6785H4.86162C4.9445 11.6785 5.02399 11.6455 5.08259 11.5869C5.1412 11.5283 5.17412 11.4488 5.17412 11.366C5.17412 11.2831 5.1412 11.2036 5.08259 11.145C5.02399 11.0864 4.9445 11.0535 4.86162 11.0535H3.31006C3.22718 11.0535 3.14769 11.0864 3.08909 11.145C3.03048 11.2036 2.99756 11.2831 2.99756 11.366C2.99756 11.4488 3.03048 11.5283 3.08909 11.5869C3.14769 11.6455 3.22718 11.6785 3.31006 11.6785Z" fill="#747784"/>
<path d="M7.95475 12.6147H3.31006C3.22718 12.6147 3.14769 12.6477 3.08909 12.7063C3.03048 12.7649 2.99756 12.8444 2.99756 12.9272C2.99756 13.0101 3.03048 13.0896 3.08909 13.1482C3.14769 13.2068 3.22718 13.2397 3.31006 13.2397H7.95475C8.03763 13.2397 8.11711 13.2068 8.17572 13.1482C8.23432 13.0896 8.26725 13.0101 8.26725 12.9272C8.26725 12.8444 8.23432 12.7649 8.17572 12.7063C8.11711 12.6477 8.03763 12.6147 7.95475 12.6147Z" fill="#747784"/>
<path d="M17.4604 5.4209C17.3776 5.4209 17.2981 5.45382 17.2395 5.51243C17.1809 5.57103 17.1479 5.65052 17.1479 5.7334V6.1284C17.1479 6.21128 17.1809 6.29076 17.2395 6.34937C17.2981 6.40797 17.3776 6.4409 17.4604 6.4409C17.5433 6.4409 17.6228 6.40797 17.6814 6.34937C17.74 6.29076 17.7729 6.21128 17.7729 6.1284V5.7334C17.7729 5.65052 17.74 5.57103 17.6814 5.51243C17.6228 5.45382 17.5433 5.4209 17.4604 5.4209Z" fill="#747784"/>
<path d="M17.4604 7.27881C17.3776 7.27881 17.2981 7.31173 17.2395 7.37034C17.1809 7.42894 17.1479 7.50843 17.1479 7.59131V10.6347C17.1479 10.7176 17.1809 10.7971 17.2395 10.8557C17.2981 10.9143 17.3776 10.9472 17.4604 10.9472C17.5433 10.9472 17.6228 10.9143 17.6814 10.8557C17.74 10.7971 17.7729 10.7176 17.7729 10.6347V7.59131C17.7729 7.50843 17.74 7.42894 17.6814 7.37034C17.6228 7.31173 17.5433 7.27881 17.4604 7.27881Z" fill="#747784"/>
<path d="M13.6562 14.9854V13.1416C13.6562 13.0587 13.6233 12.9792 13.5647 12.9206C13.5061 12.862 13.4266 12.8291 13.3438 12.8291C13.2609 12.8291 13.1814 12.862 13.1228 12.9206C13.0642 12.9792 13.0312 13.0587 13.0312 13.1416V15.1154C13.0313 15.1982 13.0642 15.2777 13.1228 15.3363L14.4256 16.6391C14.4846 16.696 14.5635 16.7275 14.6454 16.7268C14.7274 16.7261 14.8058 16.6932 14.8637 16.6353C14.9216 16.5774 14.9545 16.499 14.9552 16.417C14.9559 16.3351 14.9244 16.2562 14.8675 16.1972L13.6562 14.9854Z" fill="#747784"/>
</g>
<defs>
<clipPath id="clip0_247_2388">
<rect width="20" height="20" fill="white"/>
</clipPath>
</defs>
</svg>
