<svg width="16" height="16" viewBox="0 0 16 16" fill="none" xmlns="http://www.w3.org/2000/svg">
<path d="M5.33141 10.6668H7.99808M5.33141 7.3335H10.6647M4.99941 2.3335C3.96208 2.36483 3.34408 2.48016 2.91608 2.90816C2.33008 3.49483 2.33008 4.43816 2.33008 6.3255V10.6628C2.33008 12.5508 2.33008 13.4942 2.91608 14.0808C3.50141 14.6668 4.44474 14.6668 6.33008 14.6668H9.66341C11.5494 14.6668 12.4921 14.6668 13.0774 14.0802C13.6641 13.4942 13.6641 12.5508 13.6641 10.6628V6.3255C13.6641 4.43883 13.6641 3.49483 13.0774 2.90816C12.6501 2.48016 12.0314 2.36483 10.9941 2.3335" stroke="#747784" stroke-width="0.75" stroke-linecap="round" stroke-linejoin="round"/>
<path d="M4.99609 2.50016C4.99609 1.85616 5.51876 1.3335 6.16276 1.3335H9.82943C10.1388 1.3335 10.4356 1.45641 10.6544 1.6752C10.8732 1.894 10.9961 2.19074 10.9961 2.50016C10.9961 2.80958 10.8732 3.10633 10.6544 3.32512C10.4356 3.54391 10.1388 3.66683 9.82943 3.66683H6.16276C5.85334 3.66683 5.55659 3.54391 5.3378 3.32512C5.11901 3.10633 4.99609 2.80958 4.99609 2.50016Z" stroke="#747784" stroke-width="0.75" stroke-linecap="round" stroke-linejoin="round"/>
</svg>
