<svg width="20" height="20" viewBox="0 0 20 20" fill="none" xmlns="http://www.w3.org/2000/svg">
<path d="M3.33331 15.0003C3.33331 14.1163 3.6845 13.2684 4.30962 12.6433C4.93474 12.0182 5.78259 11.667 6.66665 11.667H13.3333C14.2174 11.667 15.0652 12.0182 15.6903 12.6433C16.3155 13.2684 16.6666 14.1163 16.6666 15.0003C16.6666 15.4424 16.4911 15.8663 16.1785 16.1788C15.8659 16.4914 15.442 16.667 15 16.667H4.99998C4.55795 16.667 4.13403 16.4914 3.82147 16.1788C3.50891 15.8663 3.33331 15.4424 3.33331 15.0003Z" stroke="#747784" stroke-linejoin="round"/>
<path d="M10 8.3335C11.3807 8.3335 12.5 7.21421 12.5 5.8335C12.5 4.45278 11.3807 3.3335 10 3.3335C8.61929 3.3335 7.5 4.45278 7.5 5.8335C7.5 7.21421 8.61929 8.3335 10 8.3335Z" stroke="#747784"/>
</svg>
