<svg width="20" height="20" viewBox="0 0 20 20" fill="none" xmlns="http://www.w3.org/2000/svg">
<path d="M2.85693 3.7499C2.85693 3.13421 3.10151 2.54375 3.53686 2.1084C3.97222 1.67305 4.56268 1.42847 5.17836 1.42847H14.8212C15.4369 1.42847 16.0274 1.67305 16.4627 2.1084C16.8981 2.54375 17.1426 3.13421 17.1426 3.7499V12.4135C17.0565 12.4706 16.9753 12.5373 16.8991 12.6135L16.0712 13.4413V3.7499C16.0712 3.41837 15.9395 3.10043 15.7051 2.86601C15.4707 2.63159 15.1527 2.4999 14.8212 2.4999H5.17836C4.84684 2.4999 4.5289 2.63159 4.29448 2.86601C4.06006 3.10043 3.92836 3.41837 3.92836 3.7499V16.2499C3.92836 16.9399 4.48836 17.4999 5.17836 17.4999H10.9412L12.0126 18.5713H5.17836C4.56268 18.5713 3.97222 18.3267 3.53686 17.8914C3.10151 17.456 2.85693 16.8656 2.85693 16.2499V3.7499ZM7.49979 6.2499C7.49979 6.4867 7.40572 6.7138 7.23828 6.88124C7.07084 7.04868 6.84373 7.14275 6.60693 7.14275C6.37013 7.14275 6.14303 7.04868 5.97559 6.88124C5.80815 6.7138 5.71408 6.4867 5.71408 6.2499C5.71408 6.01309 5.80815 5.78599 5.97559 5.61855C6.14303 5.45111 6.37013 5.35704 6.60693 5.35704C6.84373 5.35704 7.07084 5.45111 7.23828 5.61855C7.40572 5.78599 7.49979 6.01309 7.49979 6.2499ZM6.60693 10.8928C6.84373 10.8928 7.07084 10.7987 7.23828 10.6312C7.40572 10.4638 7.49979 10.2367 7.49979 9.9999C7.49979 9.76309 7.40572 9.53599 7.23828 9.36855C7.07084 9.20111 6.84373 9.10704 6.60693 9.10704C6.37013 9.10704 6.14303 9.20111 5.97559 9.36855C5.80815 9.53599 5.71408 9.76309 5.71408 9.9999C5.71408 10.2367 5.80815 10.4638 5.97559 10.6312C6.14303 10.7987 6.37013 10.8928 6.60693 10.8928ZM6.60693 14.6428C6.84373 14.6428 7.07084 14.5487 7.23828 14.3812C7.40572 14.2138 7.49979 13.9867 7.49979 13.7499C7.49979 13.5131 7.40572 13.286 7.23828 13.1185C7.07084 12.9511 6.84373 12.857 6.60693 12.857C6.37013 12.857 6.14303 12.9511 5.97559 13.1185C5.80815 13.286 5.71408 13.5131 5.71408 13.7499C5.71408 13.9867 5.80815 14.2138 5.97559 14.3812C6.14303 14.5487 6.37013 14.6428 6.60693 14.6428ZM9.10693 5.71418C8.96485 5.71418 8.82859 5.77062 8.72813 5.87109C8.62766 5.97155 8.57122 6.10781 8.57122 6.2499C8.57122 6.39198 8.62766 6.52824 8.72813 6.6287C8.82859 6.72917 8.96485 6.78561 9.10693 6.78561H13.7498C13.8919 6.78561 14.0281 6.72917 14.1286 6.6287C14.2291 6.52824 14.2855 6.39198 14.2855 6.2499C14.2855 6.10781 14.2291 5.97155 14.1286 5.87109C14.0281 5.77062 13.8919 5.71418 13.7498 5.71418H9.10693ZM8.57122 9.9999C8.57122 9.85781 8.62766 9.72155 8.72813 9.62109C8.82859 9.52062 8.96485 9.46418 9.10693 9.46418H13.7498C13.8919 9.46418 14.0281 9.52062 14.1286 9.62109C14.2291 9.72155 14.2855 9.85781 14.2855 9.9999C14.2855 10.142 14.2291 10.2782 14.1286 10.3787C14.0281 10.4792 13.8919 10.5356 13.7498 10.5356H9.10693C8.96485 10.5356 8.82859 10.4792 8.72813 10.3787C8.62766 10.2782 8.57122 10.142 8.57122 9.9999ZM9.10693 13.2142C8.96485 13.2142 8.82859 13.2706 8.72813 13.3711C8.62766 13.4716 8.57122 13.6078 8.57122 13.7499C8.57122 13.892 8.62766 14.0282 8.72813 14.1287C8.82859 14.2292 8.96485 14.2856 9.10693 14.2856H13.7498C13.8919 14.2856 14.0281 14.2292 14.1286 14.1287C14.2291 14.0282 14.2855 13.892 14.2855 13.7499C14.2855 13.6078 14.2291 13.4716 14.1286 13.3711C14.0281 13.2706 13.8919 13.2142 13.7498 13.2142H9.10693ZM18.4141 14.1285L14.1284 18.4142C14.0279 18.5145 13.8918 18.5709 13.7498 18.5709C13.6078 18.5709 13.4717 18.5145 13.3712 18.4142L11.2298 16.2728C11.1352 16.1712 11.0836 16.0369 11.0861 15.8981C11.0885 15.7593 11.1448 15.6269 11.2429 15.5287C11.3411 15.4306 11.4735 15.3744 11.6123 15.3719C11.7511 15.3695 11.8854 15.421 11.9869 15.5156L13.7498 17.2778L17.6569 13.3706C17.7064 13.3195 17.7655 13.2787 17.8309 13.2506C17.8963 13.2226 17.9666 13.2078 18.0377 13.2073C18.1088 13.2067 18.1794 13.2203 18.2452 13.2472C18.311 13.2742 18.3708 13.314 18.4211 13.3643C18.4714 13.4147 18.5111 13.4745 18.538 13.5403C18.5649 13.6062 18.5784 13.6767 18.5778 13.7479C18.5771 13.819 18.5623 13.8893 18.5342 13.9546C18.5061 14.02 18.4653 14.0791 18.4141 14.1285Z" fill="#747784"/>
</svg>
