<svg width="20" height="20" viewBox="0 0 20 20" fill="none" xmlns="http://www.w3.org/2000/svg">
<path d="M7.08268 9.58333V8.75H12.916V9.58333H7.08268ZM7.08268 6.25V5.41667H12.916V6.25H7.08268ZM4.99935 12.0833H11.2493C11.5882 12.0833 11.8993 12.1569 12.1827 12.3042C12.4655 12.4508 12.7088 12.6572 12.9127 12.9233L14.9993 15.6317V3.84667C14.9993 3.69667 14.9513 3.57361 14.8552 3.4775C14.7591 3.38139 14.6363 3.33333 14.4868 3.33333H5.51185C5.3624 3.33333 5.23963 3.38139 5.14352 3.4775C5.0474 3.57361 4.99935 3.69667 4.99935 3.84667V12.0833ZM5.51268 16.6667H14.7368L12.2577 13.4308C12.1316 13.2664 11.9827 13.1394 11.811 13.05C11.6399 12.9611 11.4527 12.9167 11.2493 12.9167H4.99935V16.1542C4.99935 16.3036 5.0474 16.4264 5.14352 16.5225C5.23963 16.6186 5.36268 16.6667 5.51268 16.6667ZM14.4868 17.5H5.51185C5.12852 17.5 4.80852 17.3717 4.55185 17.115C4.29518 16.8583 4.16657 16.5381 4.16602 16.1542V3.84583C4.16602 3.4625 4.29463 3.1425 4.55185 2.88583C4.80907 2.62917 5.12935 2.50056 5.51268 2.5H14.4868C14.8702 2.5 15.1905 2.62861 15.4477 2.88583C15.7049 3.14306 15.8332 3.46333 15.8327 3.84667V16.1542C15.8327 16.5375 15.7044 16.8578 15.4477 17.115C15.191 17.3722 14.8713 17.5006 14.4868 17.5Z" fill="#747784"/>
</svg>
