<svg width="24" height="24" viewBox="0 0 24 24" fill="none" xmlns="http://www.w3.org/2000/svg">
<path d="M16.5 19.857V21M16.5 19.857C16.0224 19.8588 15.5516 19.7439 15.1286 19.5222C14.7056 19.3005 14.3432 18.9788 14.073 18.585M16.5 19.857C16.9776 19.8588 17.4484 19.7439 17.8714 19.5222C18.2944 19.3005 18.6568 18.9788 18.927 18.585M14.073 18.585L13 19.285M14.073 18.585C13.7527 18.1185 13.5812 17.5659 13.5812 17C13.5812 16.4341 13.7527 15.8815 14.073 15.415M18.927 18.585L20 19.285M18.927 18.585C19.2473 18.1185 19.4188 17.5659 19.4188 17C19.4188 16.4341 19.2473 15.8815 18.927 15.415M16.5 14.143C16.9776 14.1412 17.4484 14.2561 17.8714 14.4778C18.2944 14.6995 18.6568 15.0212 18.927 15.415M16.5 14.143C16.0224 14.1412 15.5516 14.2561 15.1286 14.4778C14.7056 14.6995 14.3432 15.0212 14.073 15.415M16.5 14.143V13M18.927 15.415L20 14.714M14.073 15.415L13 14.715M4 3H20M4 9H20M4 15H9" stroke="#FCFCFD" stroke-width="1.5" stroke-linecap="round" stroke-linejoin="round"/>
</svg>
