<svg width="16" height="16" viewBox="0 0 16 16" fill="none" xmlns="http://www.w3.org/2000/svg">
<path d="M5.33141 10.6666H7.99808M5.33141 7.33325H10.6647M4.99941 2.33325C3.96208 2.36459 3.34408 2.47992 2.91608 2.90792C2.33008 3.49459 2.33008 4.43792 2.33008 6.32525V10.6626C2.33008 12.5506 2.33008 13.4939 2.91608 14.0806C3.50141 14.6666 4.44474 14.6666 6.33008 14.6666H9.66341C11.5494 14.6666 12.4921 14.6666 13.0774 14.0799C13.6641 13.4939 13.6641 12.5506 13.6641 10.6626V6.32525C13.6641 4.43859 13.6641 3.49459 13.0774 2.90792C12.6501 2.47992 12.0314 2.36459 10.9941 2.33325" stroke="#747784" stroke-width="0.75" stroke-linecap="round" stroke-linejoin="round"/>
<path d="M4.99609 2.49992C4.99609 1.85592 5.51876 1.33325 6.16276 1.33325H9.82943C10.1388 1.33325 10.4356 1.45617 10.6544 1.67496C10.8732 1.89375 10.9961 2.1905 10.9961 2.49992C10.9961 2.80934 10.8732 3.10608 10.6544 3.32488C10.4356 3.54367 10.1388 3.66659 9.82943 3.66659H6.16276C5.85334 3.66659 5.55659 3.54367 5.3378 3.32488C5.11901 3.10608 4.99609 2.80934 4.99609 2.49992Z" stroke="#747784" stroke-width="0.75" stroke-linecap="round" stroke-linejoin="round"/>
</svg>
