<svg width="16" height="16" viewBox="0 0 16 16" fill="none" xmlns="http://www.w3.org/2000/svg">
<path d="M4.67605 10.6688H7.34272M4.67605 7.33677H10.0094M6.67605 14.6668H7.34272M5.00672 14.6668C4.22672 14.6501 3.69339 14.6001 3.17605 14.4501C2.47605 14.2668 1.96605 13.6501 1.81605 12.7841C1.62605 11.9681 1.69272 9.95277 1.67605 7.55344C1.67739 5.69277 1.59272 3.90544 1.89272 2.88944C2.07605 2.55611 2.22605 1.34011 4.70939 1.35611C5.12605 1.34011 9.54272 1.30677 10.2427 1.37344C12.5761 1.42344 12.8094 2.62277 12.9427 3.75544C13.0274 4.58877 13.0094 5.92077 13.0094 7.33677M4.67605 1.34011C4.87605 2.42277 4.85939 3.12277 5.59272 3.28877C5.90939 3.33877 6.63272 3.33744 7.40939 3.33877C8.10272 3.34011 8.80939 3.34677 9.12605 3.27211C9.90939 3.08944 9.82605 2.12277 10.0261 1.34011M12.1861 9.58611C11.2694 10.5194 9.50405 12.1848 9.50405 12.3014C9.36205 12.4994 9.23739 12.9014 9.15472 13.4681C9.05005 13.9928 8.92472 14.4501 9.07139 14.5834C9.21805 14.7168 9.76939 14.6048 10.3534 14.4834C10.8201 14.4334 11.2534 14.2668 11.4694 14.1008C11.7861 13.8208 13.9347 11.6514 14.1841 11.3688C14.3674 11.1188 14.3841 10.6521 14.2241 10.3688C14.1347 10.1688 13.5681 9.63544 13.3847 9.48611C13.2004 9.37242 12.9844 9.32078 12.7686 9.33878C12.5528 9.35677 12.349 9.44345 12.1861 9.58611Z" stroke="#747784" stroke-width="0.75" stroke-linecap="round" stroke-linejoin="round"/>
</svg>
